HIERARCHY
ROOT Hips
{
  OFFSET 0 0 0
  CHANNELS 6 Xposition Yposition Zposition Zrotation Yrotation Xrotation
  JOINT LeftThigh
  {
    OFFSET 8.409438 0 -5.917753
    CHANNELS 3 Zrotation Yrotation Xrotation
    JOINT LeftLeg
    {
      OFFSET 0 0 -42.358652
      CHANNELS 3 Zrotation Yrotation Xrotation
      JOINT LeftFoot
      {
        OFFSET 0 0 -39.357303
        CHANNELS 3 Zrotation Yrotation Xrotation
      }
    }
  }
  JOINT RightThigh
  {
    OFFSET -8.409438 0 -5.917753
    CHANNELS 3 Zrotation Yrotation Xrotation
    JOINT RightLeg
    {
      OFFSET 0 0 -42.358652
      CHANNELS 3 Zrotation Yrotation Xrotation
      JOINT RightFoot
      {
        OFFSET 0 0 -39.357303
        CHANNELS 3 Zrotation Yrotation Xrotation
      }
    }
  }
  JOINT SpineLow
  {
    OFFSET 0 0 4.719101
    CHANNELS 3 Zrotation Yrotation Xrotation
    JOINT SpineMid
    {
      OFFSET 0 0 12.899191
      CHANNELS 3 Zrotation Yrotation Xrotation
      JOINT Chest
      {
        OFFSET 0 0 12.899191
        CHANNELS 3 Zrotation Yrotation Xrotation
        JOINT LeftShoulder
        {
          OFFSET 7.550562 1.41573 9.438202
          CHANNELS 3 Zrotation Yrotation Xrotation
          JOINT LeftArm
          {
            OFFSET 9.155056 0 4.247191
            CHANNELS 3 Zrotation Yrotation Xrotation
            JOINT LeftForearm
            {
              OFFSET 0 0 25.771955
              CHANNELS 3 Zrotation Yrotation Xrotation
              JOINT LeftHand
              {
                OFFSET 0 0 25.197169
                CHANNELS 3 Zrotation Yrotation Xrotation
              }
            }
          }
        }
        JOINT RightShoulder
        {
          OFFSET -7.550562 1.41573 9.438202
          CHANNELS 3 Zrotation Yrotation Xrotation
          JOINT RightArm
          {
            OFFSET -9.155056 0 4.247191
            CHANNELS 3 Zrotation Yrotation Xrotation
            JOINT RightForearm
            {
              OFFSET 0 0 -25.771955
              CHANNELS 3 Zrotation Yrotation Xrotation
              JOINT RightHand
              {
                OFFSET 0 0 -25.197169
                CHANNELS 3 Zrotation Yrotation Xrotation
              }
            }
          }
        }
        JOINT Neck
        {
          OFFSET 0 0 15.101124
          CHANNELS 3 Zrotation Yrotation Xrotation
          JOINT Head
          {
            OFFSET 0 0 11.325843
            CHANNELS 3 Zrotation Yrotation Xrotation
            End Site
            {
              OFFSET 0 0 14.157303
            }
          }
        }
      }
    }
  }
}
MOTION
Frames: 7
Frame Time: 0.0
0.0  101.685394  0.0  2.591915  33.030853  -94.397178  8.110875  -28.107715  3.810196  2.885556  14.098107  48.694899  -0.416687  4.665168  -7.010791  -24.764014  6.560974  -45.763693  5.884391  8.640847  59.530942  10.889811  3.248044  2.523713  -3.084328  1.326556  1.928987  -8.327348  3.862509  5.098995  -8.327348  3.862509  5.098995  -3.848732  20.577697  10.179949  157.166021  32.94982  -166.093201  -61.552606  -22.095968  88.749099  67.24252  -18.123696  28.716244  14.80186  -7.094049  17.938816  18.038901  77.192071  -33.450521  -36.394959  4.694929  -77.313357  63.009639  -0.618377  21.513745  -7.729609  -3.808411  -5.628522  -5.830769  -2.785954  -4.268873  
0.0  101.685394  0.0  2.585668  32.752114  -94.262022  8.385559  -27.923318  3.381546  2.0781  14.771768  48.645688  0.763439  4.698605  -6.897979  -24.773731  6.417362  -46.076986  6.042541  8.520918  59.583388  10.961047  3.117498  2.508635  -3.087302  1.310679  1.93559  -8.336159  3.820266  5.118761  -8.336159  3.820266  5.118762  -4.024575  20.792866  10.251049  157.866028  34.073179  -164.956914  -61.219909  -23.051847  88.716392  67.304257  -18.523931  27.358479  14.52628  -7.027855  17.973378  21.190875  77.064808  -30.931661  -36.210578  4.472188  -78.017755  62.872304  -0.72924  21.553525  -7.61209  -3.767383  -5.80249  -5.743429  -2.75409  -4.398087  
0.0  101.685394  0.0  2.453855  32.247586  -94.297757  9.183494  -27.888634  3.159652  1.135951  15.105732  48.340987  1.533907  4.703154  -6.776783  -24.765314  6.287684  -46.349711  6.198608  8.13589  59.672389  11.045488  3.072149  2.525872  -3.073939  1.276536  1.94857  -8.301187  3.727769  5.159119  -8.301186  3.727769  5.159119  -4.323222  21.056912  10.301365  158.993494  35.329158  -163.520043  -60.698982  -24.10556  88.591932  67.477807  -18.877872  25.35806  14.298292  -6.914234  18.042823  25.387666  76.932539  -27.409825  -36.110817  4.31286  -78.762814  62.681186  -0.853383  21.773468  -7.46368  -3.684356  -5.957584  -5.632417  -2.691312  -4.512492  
0.0  101.685394  0.0  2.393341  31.925601  -94.241107  10.055439  -27.84569  3.056086  0.25848  15.089185  47.84283  1.829436  4.684439  -6.67906  -24.607635  6.160665  -46.509583  6.216831  7.959745  59.65085  11.033269  3.033412  2.580264  -3.104509  1.244257  1.944267  -8.38725  3.641544  5.149483  -8.38725  3.641544  5.149483  -4.442806  21.40244  10.412393  160.165793  36.791956  -161.870915  -60.092064  -25.090702  88.423851  67.794853  -19.116036  22.949589  14.106236  -6.734616  18.137214  30.504833  76.712462  -22.976526  -36.080824  4.218031  -79.556549  62.347691  -1.002188  22.167877  -7.247243  -3.576709  -6.077449  -5.469909  -2.611226  -4.599831  
0.0  101.685394  0.0  2.31207  31.517701  -94.245888  11.05757  -27.913506  3.135852  -0.438907  14.80797  47.260793  1.608906  4.628861  -6.627275  -24.535766  6.062773  -46.656089  6.366762  7.563802  59.701674  10.977227  3.000331  2.599168  -3.149354  1.206802  1.937514  -8.512826  3.541972  5.133077  -8.512825  3.541972  5.133076  -4.87644  21.762345  10.379604  161.950787  38.260256  -159.878132  -59.399732  -26.133097  88.186371  68.065778  -19.240752  20.383315  14.005457  -6.478265  18.250235  36.32516  76.30965  -17.878176  -36.059293  4.148238  -80.401066  61.874535  -1.141348  22.636919  -6.968129  -3.432601  -6.162094  -5.259808  -2.504899  -4.66008  
0.0  101.685394  0.0  2.245526  31.035652  -94.23333  11.978052  -27.993391  3.30063  -0.869571  14.40124  46.717213  1.24489  4.58467  -6.552551  -24.079781  5.894891  -46.678995  6.276014  7.565812  59.670157  11.00871  2.988056  2.624864  -3.201701  1.172492  1.936862  -8.65834  3.452312  5.132667  -8.65834  3.452312  5.132666  -4.944021  22.172205  10.251634  163.475567  39.855896  -157.820456  -58.663768  -27.320878  87.915763  68.055095  -19.265858  17.879336  13.918038  -6.193355  18.254953  42.546091  75.65137  -12.458034  -35.959828  4.012202  -81.313778  61.327689  -1.268854  23.18087  -6.612446  -3.303672  -6.248206  -4.992382  -2.4108  -4.721286  
0.0  101.685394  0.0  2.139027  30.403921  -94.242314  12.712557  -28.037338  3.521705  -1.078649  13.979892  46.233168  0.972877  4.540887  -6.469594  -23.689531  5.724291  -46.733387  6.271982  7.494569  59.649787  11.06769  2.941068  2.646647  -3.249017  1.138692  1.94754  -8.789456  3.365163  5.163546  -8.789456  3.365163  5.163545  -5.359501  22.535081  9.742728  165.427192  41.351037  -155.654933  -57.871434  -28.660313  87.682578  67.676631  -19.229513  15.539942  13.808167  -5.924476  18.097383  48.955843  74.654811  -6.956623  -35.705301  3.776178  -82.348769  60.651039  -1.381258  23.95381  -6.2161  -3.204646  -6.343788  -4.69475  -2.339561  -4.789808  
